<svg xmlns="http://www.w3.org/2000/svg" xmlns:xlink="http://www.w3.org/1999/xlink" version="1.1" x="0px" y="0px" viewBox="-177 269 256 320" enable-background="new -177 269 256 256" xml:space="preserve"><path d="M38.449,313.949c0-0.148,0.051-0.25,0.051-0.398c0-0.051,0-0.102,0-0.152c0-0.148,0-0.297,0-0.449  c0-0.148-0.051-0.301-0.102-0.449c0-0.051,0-0.051-0.047-0.102c-0.051-0.148-0.051-0.25-0.102-0.398v-0.051  c-0.051-0.148-0.148-0.301-0.199-0.449L38,311.449c-0.051-0.098-0.148-0.25-0.199-0.348c0-0.051-0.051-0.051-0.051-0.102  c-0.102-0.148-0.199-0.25-0.301-0.352c-0.098-0.098-0.25-0.199-0.348-0.297c-0.051,0-0.051-0.051-0.102-0.051  c-0.102-0.102-0.199-0.152-0.352-0.199l-0.047-0.051c-0.152-0.102-0.301-0.152-0.453-0.199h-0.047  c-0.152-0.051-0.25-0.102-0.402-0.102c-0.051,0-0.051,0-0.098-0.051c-0.152-0.051-0.301-0.051-0.453-0.098c-0.148,0-0.297,0-0.449,0  c-0.051,0-0.098,0-0.148,0c-0.152,0-0.25,0-0.402,0.047h-0.047c-0.152,0.051-0.301,0.051-0.453,0.102h-0.047l-167.5,55.75  c-1.551,0.5-2.652,2-2.602,3.648c0,1.652,1.102,3.102,2.699,3.602l83,26.051l26.051,83c0.5,1.598,1.949,2.648,3.602,2.699  c0,0,0,0,0.047,0c1.652,0,3.102-1.051,3.652-2.602l55.75-167.348c0,0,0,0,0-0.051c0.051-0.148,0.098-0.301,0.098-0.449  C38.449,314,38.449,314,38.449,313.949z M20.5,322.051l-69.352,69.398L-120.25,369L20.5,322.051z M-21,468.25l-22.449-71.398  L25.898,327.5L-21,468.25z"/></svg>